HIERARCHY
ROOT Hips
{
	OFFSET 0.000000 83.214638 0.000000
	CHANNELS 6 Xposition Yposition Zposition Xrotation Yrotation Zrotation
	JOINT Pelvis
	{
		OFFSET 0.000000 0.000000 0.000000
		CHANNELS 3 Xrotation Yrotation Zrotation
		JOINT LeftUpLeg
		{
			OFFSET 8.479700 -4.795502 -0.379100
			CHANNELS 3 Xrotation Yrotation Zrotation
			JOINT LeftLeg
			{
				OFFSET 0.024144 -32.555107 0.112900
				CHANNELS 3 Xrotation Yrotation Zrotation
				JOINT LeftFoot
				{
					OFFSET -0.024144 -32.638630 -3.012600
					CHANNELS 3 Xrotation Yrotation Zrotation
					JOINT LeftToeBase
					{
						OFFSET 0.970200 -13.225400 11.864200
						CHANNELS 3 Xrotation Yrotation Zrotation
						End Site
						{
							OFFSET 0.000000 12.319262 0.000000
						}
					}
					JOINT LFootTongue
					{
						OFFSET 1.142400 -1.059800 6.665200
						CHANNELS 3 Xrotation Yrotation Zrotation
						End Site
						{
							OFFSET 0.000000 12.319262 0.000000
						}
					}
				}
				JOINT LeftPantLeg
				{
					OFFSET 0.918482 -16.533964 -2.284700
					CHANNELS 3 Xrotation Yrotation Zrotation
					End Site
					{
						OFFSET 0.350399 24.744368 0.000000
					}
				}
			}
		}
		JOINT RightUpLeg
		{
			OFFSET -8.479700 -4.795502 -0.379100
			CHANNELS 3 Xrotation Yrotation Zrotation
			JOINT RightLeg
			{
				OFFSET -0.023144 -32.555092 0.112900
				CHANNELS 3 Xrotation Yrotation Zrotation
				JOINT RightFoot
				{
					OFFSET 0.023144 -32.638641 -3.012700
					CHANNELS 3 Xrotation Yrotation Zrotation
					JOINT RightToeBase
					{
						OFFSET -0.970200 -13.225400 11.864200
						CHANNELS 3 Xrotation Yrotation Zrotation
						End Site
						{
							OFFSET 0.000000 12.319244 0.000000
						}
					}
					JOINT RFootTongue
					{
						OFFSET -1.142200 -1.059800 6.665200
						CHANNELS 3 Xrotation Yrotation Zrotation
						End Site
						{
							OFFSET 0.000000 12.319243 0.000000
						}
					}
				}
				JOINT RightPantLeg
				{
					OFFSET -0.919482 -16.533978 -2.284800
					CHANNELS 3 Xrotation Yrotation Zrotation
					End Site
					{
						OFFSET -0.350400 24.744419 0.000000
					}
				}
			}
		}
	}
	JOINT Spine
	{
		OFFSET 0.000000 7.722000 1.166200
		CHANNELS 3 Xrotation Yrotation Zrotation
		JOINT Spine1
		{
			OFFSET 0.000000 12.024101 0.248800
			CHANNELS 3 Xrotation Yrotation Zrotation
			JOINT Spine2
			{
				OFFSET 0.000000 11.502998 -0.491200
				CHANNELS 3 Xrotation Yrotation Zrotation
				JOINT Neck
				{
					OFFSET 0.000000 18.430702 -3.123100
					CHANNELS 3 Xrotation Yrotation Zrotation
					JOINT Head
					{
						OFFSET 0.000000 9.051102 1.034000
						CHANNELS 3 Xrotation Yrotation Zrotation
						JOINT HairB
						{
							OFFSET 0.208400 24.786102 24.822300
							CHANNELS 3 Xrotation Yrotation Zrotation
							End Site
							{
								OFFSET 0.000000 32.263779 0.000000
							}
						}
						JOINT HairA
						{
							OFFSET -7.081100 24.428299 23.196600
							CHANNELS 3 Xrotation Yrotation Zrotation
							End Site
							{
								OFFSET 0.000000 32.263779 0.000000
							}
						}
						JOINT Hat
						{
							OFFSET 16.728800 15.048294 -15.439601
							CHANNELS 3 Xrotation Yrotation Zrotation
							End Site
							{
								OFFSET 0.000000 32.263779 0.000000
							}
						}
					}
				}
				JOINT LeftShoulder
				{
					OFFSET 6.197800 13.665199 -4.064700
					CHANNELS 3 Xrotation Yrotation Zrotation
					JOINT LeftArm
					{
						OFFSET 7.778100 -0.187103 -1.709300
						CHANNELS 3 Xrotation Yrotation Zrotation
						JOINT LeftForeArm
						{
							OFFSET 22.049376 0.000000 0.000000
							CHANNELS 3 Xrotation Yrotation Zrotation
							JOINT LeftHand
							{
								OFFSET 23.009392 0.000000 0.000000
								CHANNELS 3 Xrotation Yrotation Zrotation
								JOINT LeftHandThumb1
								{
									OFFSET 3.507191 -2.063065 3.133727
									CHANNELS 3 Xrotation Yrotation Zrotation
									JOINT LeftHandThumb2
									{
										OFFSET 3.101337 -1.790558 1.790558
										CHANNELS 3 Xrotation Yrotation Zrotation
										JOINT LeftHandThumb3
										{
											OFFSET 3.058640 -1.765907 1.765906
											CHANNELS 3 Xrotation Yrotation Zrotation
											End Site
											{
												OFFSET -0.415260 3.926476 -0.049563
											}
										}
									}
								}
								JOINT LeftHandIndex1
								{
									OFFSET 11.334419 -0.901459 3.706815
									CHANNELS 3 Xrotation Yrotation Zrotation
									JOINT LeftHandIndex2
									{
										OFFSET 3.283112 0.000000 0.000000
										CHANNELS 3 Xrotation Yrotation Zrotation
										JOINT LeftHandIndex3
										{
											OFFSET 3.323853 0.000000 0.000000
											CHANNELS 3 Xrotation Yrotation Zrotation
											End Site
											{
												OFFSET -1.135597 3.097809 0.402452
											}
										}
									}
								}
								JOINT LeftHandMiddle1
								{
									OFFSET 11.335861 0.000000 0.000000
									CHANNELS 3 Xrotation Yrotation Zrotation
									JOINT LeftHandMiddle2
									{
										OFFSET 3.410492 0.000000 0.000000
										CHANNELS 3 Xrotation Yrotation Zrotation
										JOINT LeftHandMiddle3
										{
											OFFSET 3.312172 0.000000 0.000000
											CHANNELS 3 Xrotation Yrotation Zrotation
											End Site
											{
												OFFSET -1.150200 3.080154 0.400270
											}
										}
									}
								}
								JOINT LeftHandRing1
								{
									OFFSET 11.514786 -0.013176 -3.003090
									CHANNELS 3 Xrotation Yrotation Zrotation
									JOINT LeftHandRing2
									{
										OFFSET 3.053307 0.000000 0.000000
										CHANNELS 3 Xrotation Yrotation Zrotation
										JOINT LeftHandRing3
										{
											OFFSET 3.295807 0.000000 0.000000
											CHANNELS 3 Xrotation Yrotation Zrotation
											End Site
											{
												OFFSET -1.281006 3.013344 0.375733
											}
										}
									}
								}
								JOINT LeftHandPinky1
								{
									OFFSET 10.518692 -0.960396 -5.730441
									CHANNELS 3 Xrotation Yrotation Zrotation
									JOINT LeftHandPinky2
									{
										OFFSET 2.861649 0.000000 0.000000
										CHANNELS 3 Xrotation Yrotation Zrotation
										JOINT LeftHandPinky3
										{
											OFFSET 2.863380 0.000000 0.000000
											CHANNELS 3 Xrotation Yrotation Zrotation
											End Site
											{
												OFFSET -0.843597 2.711159 0.369971
											}
										}
									}
								}
							}
							JOINT LSleeve
							{
								OFFSET 6.676277 -0.344902 -1.011730
								CHANNELS 3 Xrotation Yrotation Zrotation
								End Site
								{
									OFFSET 0.000000 14.885353 0.000000
								}
							}
						}
					}
				}
				JOINT RightShoulder
				{
					OFFSET -6.197800 13.665199 -4.064700
					CHANNELS 3 Xrotation Yrotation Zrotation
					JOINT RightArm
					{
						OFFSET -7.778100 -0.187103 -1.709300
						CHANNELS 3 Xrotation Yrotation Zrotation
						JOINT RightForeArm
						{
							OFFSET -22.049376 0.000000 0.000000
							CHANNELS 3 Xrotation Yrotation Zrotation
							JOINT RightHand
							{
								OFFSET -23.009392 0.000000 0.000000
								CHANNELS 3 Xrotation Yrotation Zrotation
								JOINT RightHandThumb1
								{
									OFFSET -3.507191 -2.063065 3.133727
									CHANNELS 3 Xrotation Yrotation Zrotation
									JOINT RightHandThumb2
									{
										OFFSET -3.101337 -1.790558 1.790558
										CHANNELS 3 Xrotation Yrotation Zrotation
										JOINT RightHandThumb3
										{
											OFFSET -3.058640 -1.765907 1.765906
											CHANNELS 3 Xrotation Yrotation Zrotation
											End Site
											{
												OFFSET 0.415260 3.926476 -0.049563
											}
										}
									}
								}
								JOINT RightHandIndex1
								{
									OFFSET -11.334419 -0.901459 3.706815
									CHANNELS 3 Xrotation Yrotation Zrotation
									JOINT RightHandIndex2
									{
										OFFSET -3.283112 0.000000 0.000000
										CHANNELS 3 Xrotation Yrotation Zrotation
										JOINT RightHandIndex3
										{
											OFFSET -3.323853 0.000000 0.000000
											CHANNELS 3 Xrotation Yrotation Zrotation
											End Site
											{
												OFFSET 1.135597 3.097809 0.402452
											}
										}
									}
								}
								JOINT RightHandMiddle1
								{
									OFFSET -11.335861 0.000000 0.000000
									CHANNELS 3 Xrotation Yrotation Zrotation
									JOINT RightHandMiddle2
									{
										OFFSET -3.410492 0.000000 0.000000
										CHANNELS 3 Xrotation Yrotation Zrotation
										JOINT RightHandMiddle3
										{
											OFFSET -3.312172 0.000000 0.000000
											CHANNELS 3 Xrotation Yrotation Zrotation
											End Site
											{
												OFFSET 1.150200 3.080154 0.400270
											}
										}
									}
								}
								JOINT RightHandRing1
								{
									OFFSET -11.514786 -0.013176 -3.003090
									CHANNELS 3 Xrotation Yrotation Zrotation
									JOINT RightHandRing2
									{
										OFFSET -3.053307 0.000000 0.000000
										CHANNELS 3 Xrotation Yrotation Zrotation
										JOINT RightHandRing3
										{
											OFFSET -3.295807 0.000000 0.000000
											CHANNELS 3 Xrotation Yrotation Zrotation
											End Site
											{
												OFFSET 1.281006 3.013344 0.375733
											}
										}
									}
								}
								JOINT RightHandPinky1
								{
									OFFSET -10.518692 -0.960396 -5.730441
									CHANNELS 3 Xrotation Yrotation Zrotation
									JOINT RightHandPinky2
									{
										OFFSET -2.861649 0.000000 0.000000
										CHANNELS 3 Xrotation Yrotation Zrotation
										JOINT RightHandPinky3
										{
											OFFSET -2.863380 0.000000 0.000000
											CHANNELS 3 Xrotation Yrotation Zrotation
											End Site
											{
												OFFSET 0.843597 2.711159 0.369971
											}
										}
									}
								}
							}
							JOINT RSleeve
							{
								OFFSET -6.676277 -0.344902 -1.011730
								CHANNELS 3 Xrotation Yrotation Zrotation
								End Site
								{
									OFFSET 0.000000 14.885353 0.000000
								}
							}
						}
					}
				}
				JOINT Backpack
				{
					OFFSET 0.000000 -2.471497 36.677502
					CHANNELS 3 Xrotation Yrotation Zrotation
					End Site
					{
						OFFSET 0.000000 20.427315 0.000000
					}
				}
				JOINT Hood
				{
					OFFSET 0.000000 18.754097 -10.431000
					CHANNELS 3 Xrotation Yrotation Zrotation
					JOINT Hood1
					{
						OFFSET 0.000000 -5.011002 -7.685901
						CHANNELS 3 Xrotation Yrotation Zrotation
						End Site
						{
							OFFSET 0.000000 9.175140 0.000000
						}
					}
				}
				JOINT LHoodieString
				{
					OFFSET 5.250500 16.397697 3.089900
					CHANNELS 3 Xrotation Yrotation Zrotation
					JOINT LHoodieString1
					{
						OFFSET 0.257700 -6.364304 3.694600
						CHANNELS 3 Xrotation Yrotation Zrotation
						JOINT LHoodieString2
						{
							OFFSET 0.000000 -9.643799 2.679100
							CHANNELS 3 Xrotation Yrotation Zrotation
							End Site
							{
								OFFSET 0.000000 10.009018 0.000000
							}
						}
					}
				}
				JOINT RHoodieString
				{
					OFFSET -5.250500 16.397697 3.089900
					CHANNELS 3 Xrotation Yrotation Zrotation
					JOINT RHoodieString1
					{
						OFFSET -0.257700 -6.364304 3.694600
						CHANNELS 3 Xrotation Yrotation Zrotation
						JOINT RHoodieString2
						{
							OFFSET 0.000000 -9.643799 2.679100
							CHANNELS 3 Xrotation Yrotation Zrotation
							End Site
							{
								OFFSET 0.000000 10.009018 0.000000
							}
						}
					}
				}
			}
			JOINT LBackpack_Strap
			{
				OFFSET 15.223200 -7.719803 -6.610900
				CHANNELS 3 Xrotation Yrotation Zrotation
				End Site
				{
					OFFSET 0.000000 16.040596 0.000000
				}
			}
			JOINT RBackpack_Strap
			{
				OFFSET -15.223000 -7.719803 -6.610900
				CHANNELS 3 Xrotation Yrotation Zrotation
				End Site
				{
					OFFSET 0.000000 16.040596 0.000000
				}
			}
		}
	}
	JOINT BoyFacialAnim_Joint
	{
		OFFSET 1.000000 -82.208099 -1.550900
		CHANNELS 3 Xrotation Yrotation Zrotation
		End Site
		{
			OFFSET 0.000000 30.012791 0.000000
		}
	}
}
MOTION
Frames: 4
Frame Time: 0.033333
-1.131867 77.566177 -0.193269 -17.448376 -61.583847 -16.895820 0.000001 -0.000001 -0.000000 -22.915157 19.413544 29.334327 29.033918 -8.900260 2.581550 -0.844911 -6.506658 -13.534675 0.000000 -0.000001 0.000000 0.000000 -0.000001 -0.000000 -0.000000 0.000003 -0.000000 -8.785660 -12.711090 -15.785383 29.759756 9.565624 -6.429450 -16.530673 5.858954 16.897225 -0.000000 0.000000 0.000000 -0.000000 0.000000 0.000000 -0.000000 -0.000000 0.000002 3.978346 0.968373 -0.925111 7.817288 1.650274 2.001858 7.833694 1.565570 2.010786 2.463537 5.511330 -1.493049 7.847635 28.397027 -15.973934 0.000000 -0.000000 -0.000000 0.000000 -0.000000 -0.000000 0.000000 -0.000000 -0.000000 0.565654 1.500604 -5.035315 -46.524711 7.688489 -25.115268 0.000041 -79.103112 0.000041 2.506989 -4.644026 5.732169 -1.540045 3.690183 6.142361 20.858682 30.471089 -22.868310 -0.000001 -0.000001 0.000000 6.387547 6.863570 -85.876160 5.085116 6.643754 -74.834954 -0.000001 0.000000 -0.000002 6.385607 6.863416 -85.859965 5.086964 6.644238 -74.851155 0.000000 0.000000 0.000000 6.387532 6.863542 -85.876160 5.085111 6.643751 -74.834954 -0.000001 -0.000001 -0.000002 10.461761 7.155666 -85.863155 5.097063 2.560170 -74.983818 -0.000002 0.000002 0.000004 -0.000001 0.000001 -0.000004 0.945389 0.739965 8.084016 -56.318584 31.858509 61.614932 -0.000049 109.890996 0.000044 -5.918397 11.104254 3.757206 -1.849245 -3.581792 -6.586125 17.815838 -33.122213 15.974323 -0.000002 0.000001 0.000007 5.634327 -6.823494 79.073530 7.189233 -6.944079 91.992519 -0.000002 0.000000 0.000002 5.634313 -6.823492 79.073517 7.189239 -6.944061 91.992519 0.000004 0.000000 -0.000002 5.634313 -6.823468 79.073523 7.189224 -6.944071 91.992512 -0.000002 0.000001 0.000002 5.634308 -6.823460 79.073517 7.189255 -6.944092 91.992512 -0.000001 -0.000000 0.000000 -0.000000 -0.000000 -0.000000 0.000000 -0.000002 0.000000 0.000000 -0.000002 0.000000 0.000000 -0.000002 0.000000 0.000000 -0.000002 0.000000 0.000000 -0.000002 0.000000 -0.000000 0.000001 -0.000000 0.000000 -0.000002 0.000000 0.000000 -0.000002 0.000000 -0.000000 0.000001 -0.000000 -0.000000 0.000001 -0.000000 -0.000000 0.000001 -0.000000 0.000001 -0.000001 -0.000000 
-1.104400 77.530380 -0.176631 -17.371966 -61.671363 -16.763427 0.000000 0.000001 0.000000 -22.996801 19.385807 29.289658 29.196214 -8.905219 2.522006 -0.980298 -6.559861 -13.510258 -0.000000 -0.000001 -0.000000 -0.000000 -0.000001 -0.000000 0.000000 0.000000 0.000003 -9.049884 -12.696592 -15.960067 29.990538 9.565950 -6.409452 -16.628635 6.028123 16.914805 0.000000 0.000000 0.000000 0.000000 0.000000 0.000000 -0.000000 -0.000001 0.000001 3.970204 0.966101 -0.962651 7.801323 1.645932 1.938255 7.817741 1.561251 1.947169 2.399858 5.552060 -1.493672 8.067030 28.498616 -15.880103 0.000002 -0.000000 0.000000 0.000002 -0.000000 0.000000 0.000002 -0.000000 0.000000 0.551630 1.540295 -4.869236 -46.396437 7.721916 -25.213727 0.000274 -79.181509 0.000291 2.585966 -4.760656 5.697877 -1.540043 3.690181 6.142357 20.858689 30.471089 -22.868308 -0.000003 -0.000000 0.000001 6.387545 6.863560 -85.876139 5.085104 6.643747 -74.834961 -0.000001 0.000002 -0.000002 6.385597 6.863418 -85.859965 5.086977 6.644248 -74.851142 -0.000001 0.000002 -0.000001 6.387539 6.863530 -85.876160 5.085095 6.643732 -74.834954 -0.000001 -0.000001 -0.000004 10.461756 7.155663 -85.863141 5.097062 2.560170 -74.983818 -0.000000 -0.000001 0.000003 0.000001 -0.000000 0.000003 0.954643 0.773332 8.207481 -55.724013 31.662766 61.567120 0.000036 109.877663 -0.000050 -5.919617 10.897291 3.932399 -1.849246 -3.581788 -6.586126 17.815830 -33.122217 15.974318 -0.000002 -0.000000 0.000003 5.633118 -6.823246 79.063299 7.187913 -6.944135 91.981556 0.000003 -0.000001 -0.000000 5.633110 -6.823242 79.063319 7.187905 -6.944122 91.981556 0.000001 0.000001 0.000002 5.633115 -6.823224 79.063299 7.187905 -6.944131 91.981550 -0.000001 -0.000000 0.000004 5.633115 -6.823217 79.063312 7.187922 -6.944135 91.981543 -0.000000 0.000000 0.000000 0.000002 -0.000002 0.000004 0.000001 -0.000001 -0.000000 0.000001 -0.000001 -0.000000 0.000001 -0.000001 -0.000000 0.000001 -0.000001 -0.000000 0.000001 -0.000001 0.000000 0.000000 0.000001 -0.000000 0.000001 -0.000001 -0.000000 0.000001 -0.000001 0.000000 0.000000 0.000001 -0.000000 0.000000 -0.000001 0.000000 0.000000 -0.000001 0.000000 0.000000 0.000001 0.000000 
-1.059900 77.483398 -0.137531 -17.215331 -61.847322 -16.477290 -0.000001 0.000001 0.000000 -23.081694 19.333491 29.130774 29.429267 -8.908066 2.421108 -1.139738 -6.505959 -13.468263 -0.000000 0.000001 -0.000000 -0.000000 0.000001 -0.000000 -0.000001 0.000001 0.000002 -9.501342 -12.682226 -16.293384 30.309180 9.565840 -6.400766 -16.755607 6.323277 16.976456 0.000000 -0.000000 -0.000000 0.000000 -0.000000 -0.000000 -0.000000 0.000000 0.000000 3.966036 0.970494 -1.033766 7.792814 1.656209 1.809915 7.809413 1.571511 1.818862 2.242340 5.617541 -1.516794 8.255061 28.603435 -15.521750 0.000001 -0.000001 0.000001 0.000001 -0.000001 0.000001 0.000001 -0.000001 0.000001 0.528393 1.639152 -4.676546 -46.219952 7.774178 -25.410771 0.000059 -79.420401 0.000065 2.350803 -4.895095 5.532683 -1.540039 3.690182 6.142359 20.858686 30.471099 -22.868313 0.000001 -0.000000 0.000000 6.387557 6.863563 -85.876139 5.085110 6.643751 -74.834927 -0.000002 -0.000002 -0.000002 6.385602 6.863425 -85.859917 5.086987 6.644241 -74.851121 -0.000002 -0.000002 -0.000000 6.387536 6.863539 -85.876139 5.085094 6.643760 -74.834920 -0.000002 -0.000001 -0.000002 10.461768 7.155662 -85.863135 5.097050 2.560164 -74.983797 -0.000003 -0.000002 0.000003 -0.000001 -0.000001 0.000001 0.962928 0.802668 8.319775 -54.441857 31.228912 61.298216 0.000094 110.016459 -0.000081 -6.975936 10.325151 3.593474 -1.849245 -3.581790 -6.586125 17.815828 -33.122210 15.974310 0.000000 -0.000002 0.000006 5.635003 -6.823605 79.079261 7.189972 -6.944058 91.998652 -0.000001 -0.000001 -0.000000 5.635002 -6.823605 79.079281 7.189972 -6.944040 91.998666 0.000002 0.000001 -0.000000 5.634992 -6.823582 79.079268 7.189962 -6.944056 91.998666 -0.000000 -0.000000 0.000002 5.634987 -6.823568 79.079281 7.189985 -6.944068 91.998659 0.000001 -0.000002 0.000003 -0.000001 -0.000001 0.000001 0.000001 -0.000001 0.000001 0.000001 -0.000001 0.000001 0.000001 -0.000001 0.000001 0.000001 -0.000001 0.000001 0.000001 -0.000001 0.000001 0.000001 -0.000001 -0.000000 0.000001 -0.000001 0.000001 0.000001 -0.000001 0.000001 0.000001 -0.000001 -0.000000 -0.000000 0.000002 -0.000000 -0.000000 0.000002 -0.000000 -0.000001 0.000001 0.000000 
-0.986605 77.421555 -0.082024 -17.102095 -62.234594 -16.172706 -0.000000 0.000001 -0.000000 -23.153609 19.295911 28.914277 29.782176 -8.907053 2.276038 -1.331893 -6.222399 -13.401807 -0.000000 -0.000001 0.000000 -0.000000 -0.000001 -0.000000 0.000000 0.000001 -0.000000 -10.162311 -12.576812 -16.718729 30.741824 9.562187 -6.464362 -16.897908 6.781616 17.105891 -0.000000 -0.000000 0.000000 -0.000000 -0.000000 0.000000 -0.000001 -0.000000 0.000000 3.978490 0.999096 -1.157805 7.817216 1.710781 1.608713 7.834634 1.624962 1.617881 2.058873 5.670410 -1.510283 8.134999 28.727287 -15.104383 0.000001 0.000000 -0.000000 0.000001 0.000000 -0.000000 0.000001 0.000000 -0.000000 0.502235 1.766585 -4.503875 -46.024185 7.904538 -25.621496 -0.000044 -79.887621 -0.000071 1.694814 -4.853085 5.193529 -1.540046 3.690181 6.142364 20.858691 30.471093 -22.868312 0.000001 -0.000001 -0.000001 6.387555 6.863568 -85.876160 5.085118 6.643746 -74.834981 0.000001 -0.000001 -0.000004 6.385610 6.863429 -85.859965 5.086994 6.644242 -74.851189 -0.000000 -0.000003 -0.000000 6.387541 6.863540 -85.876167 5.085100 6.643738 -74.834968 -0.000001 0.000001 0.000001 10.461759 7.155666 -85.863162 5.097074 2.560167 -74.983852 -0.000002 0.000001 0.000002 -0.000001 0.000005 0.000002 0.972376 0.839448 8.440770 -52.124312 30.436166 60.798622 0.000091 110.156212 -0.000069 -8.660905 9.801510 3.130582 -1.849247 -3.581792 -6.586122 17.815833 -33.122210 15.974318 0.000001 0.000004 -0.000001 5.638772 -6.824337 79.110980 7.194094 -6.943917 92.032687 -0.000002 0.000002 0.000002 5.638769 -6.824334 79.110960 7.194091 -6.943899 92.032687 0.000000 -0.000000 -0.000002 5.638768 -6.824313 79.110967 7.194071 -6.943905 92.032680 -0.000002 0.000002 -0.000001 5.638765 -6.824305 79.110967 7.194090 -6.943915 92.032660 0.000000 -0.000001 -0.000005 0.000000 0.000000 -0.000002 0.000001 0.000002 -0.000000 0.000001 0.000002 -0.000000 0.000001 0.000002 -0.000000 0.000001 0.000002 -0.000000 0.000001 0.000002 -0.000000 0.000001 -0.000001 0.000000 0.000001 0.000002 -0.000000 0.000001 0.000002 -0.000000 0.000001 -0.000001 0.000000 -0.000000 -0.000002 -0.000000 -0.000000 -0.000002 -0.000000 -0.000000 0.000001 -0.000000 
